ENKI BILALTykho Moon (1996)

 
http://www.imdb.com/title/tt0118003/


The McBee family has erected a government over a future 'colony', that looks like a run-down Paris divided into sectors by the Berlin Wall. All male family members suffer from a mysterious disease and are in urgent need of organ transplants. The perfect donor, Tykho Moon, probably has been killed in a fire, but according to rumours he's still alive. Although assassins stalk the family members, the McBees start a hunt for Tykho. Trying to escape the dragnet, Alex, a sculptor, meets Lena, a killer posing as a whore.


subtitles:  English, Spanish, Croatian, Polish, Turkish (.srt)



screenshots included in torrent






General
Complete name : Bilals.TYKHO.MOON.1996.DVDrip.Divx[Fre].avi
Format : AVI
Format/Info : Audio Video Interleave
File size : 698 MiB
Duration : 1h 43mn
Overall bit rate : 943 Kbps
Movie name : Bilal's TYKHO MOON (1996) DVDRip French
Director : Atilla82
Writing application : VirtualDubMod 1.5.10.2 (build 2540/release)
Writing library : VirtualDubMod build 2540/release
Video
ID : 0
Format : MPEG-4 Visual
Format settings, BVOP : 1
Format settings, QPel : No
Format settings, GMC : No warppoints
Format settings, Matrix : Default (H.263)
Muxing mode : Packed bitstream
Codec ID : DX50
Codec ID/Hint : DivX 5
Duration : 1h 43mn
Bit rate : 742 Kbps
Width : 512 pixels
Height : 288 pixels
Display aspect ratio : 16:9
Frame rate : 25.000 fps
Color space : YUV
Chroma subsampling : 4:2:0
Bit depth : 8 bits
Scan type : Progressive
Compression mode : Lossy
Bits/(Pixel*Frame) : 0.201
Stream size : 549 MiB (79%)
Writing library : DivX 5.0.3 (UTC 2003-01-24)
Audio
ID : 1
Format : MPEG Audio
Format version : Version 1
Format profile : Layer 3
Mode : Joint stereo
Mode extension : MS Stereo
Codec ID : 55
Codec ID/Hint : MP3
Duration : 1h 43mn
Bit rate mode : Constant
Bit rate : 192 Kbps
Channel(s) : 2 channels
Sampling rate : 48.0 KHz
Compression mode : Lossy
Stream size : 142 MiB (20%)
Alignment : Split accross interleaves
Interleave, duration : 40 ms (1.00 video frame)
Interleave, preload duration : 500 ms

